<?xml version="1.0" standalone="no"?>
<!DOCTYPE svg PUBLIC "-//W3C//DTD SVG 20010904//EN"
 "http://www.w3.org/TR/2001/REC-SVG-20010904/DTD/svg10.dtd">
<svg version="1.0" xmlns="http://www.w3.org/2000/svg"
 width="700.000000pt" height="700.000000pt" viewBox="0 0 700.000000 700.000000"
 preserveAspectRatio="xMidYMid meet">
<metadata>
Created by potrace 1.14, written by Peter Selinger 2001-2017
</metadata>
<g transform="translate(0.000000,700.000000) scale(0.100000,-0.100000)"
fill="#000000" stroke="none">
<path d="M5248 6856 c-1 -2 -29 -6 -60 -9 -124 -11 -273 -117 -326 -231 -51
-107 -49 -80 -50 -1216 -1 -586 -3 -1075 -6 -1086 -15 -69 -74 -144 -141 -178
-99 -49 -143 -43 -348 42 -102 43 -257 90 -328 98 -23 3 -62 9 -88 14 -48 9
-388 6 -431 -4 -31 -7 -118 -25 -152 -31 -53 -10 -235 -78 -318 -119 -47 -23
-209 -114 -360 -202 -319 -186 -659 -383 -711 -412 l-36 -20 -28 61 c-79 170
-218 322 -377 411 -132 73 -317 117 -451 107 -16 -1 -18 -9 -12 -78 8 -110 12
-138 34 -225 109 -425 455 -699 907 -718 6 0 17 -19 23 -42 20 -67 104 -235
161 -323 57 -88 113 -157 203 -252 l58 -61 -27 -44 c-15 -23 -40 -70 -55 -104
-36 -78 -141 -437 -142 -484 -1 -36 2 -51 29 -200 9 -47 18 -96 20 -110 3 -14
11 -59 19 -100 8 -41 21 -113 29 -160 13 -71 32 -175 111 -600 3 -14 14 -74
25 -135 11 -60 23 -128 27 -150 3 -22 11 -52 19 -66 16 -32 69 -79 92 -80 67
-6 792 -3 792 2 0 4 -10 16 -22 27 -13 10 -110 106 -216 214 -173 174 -194
199 -199 234 -3 21 -35 250 -72 508 l-67 469 248 198 c137 110 250 199 252
199 2 0 -9 -41 -25 -90 -40 -123 -40 -192 -4 -395 8 -44 17 -93 20 -110 3 -16
12 -70 21 -120 8 -49 17 -92 19 -95 2 -3 6 -30 10 -60 4 -30 9 -58 11 -61 2
-3 6 -21 9 -40 3 -19 16 -92 30 -164 13 -71 26 -141 29 -155 5 -33 54 -297 61
-335 3 -16 11 -56 17 -89 12 -68 45 -111 98 -129 26 -9 142 -12 415 -11 209 1
382 2 384 3 2 1 -59 63 -135 140 -77 76 -174 174 -217 218 l-78 79 -29 205
c-16 112 -32 221 -35 242 -3 20 -7 52 -10 70 -2 17 -7 50 -10 72 -5 38 -19
130 -30 205 -2 19 -8 58 -11 85 -3 28 -10 69 -14 93 l-8 43 312 311 311 312
84 29 c106 35 222 93 331 165 91 60 266 227 315 302 17 25 33 47 36 50 3 3 24
37 46 75 75 134 130 293 154 448 8 49 13 470 15 1342 2 699 4 1286 4 1307 l0
36 287 1 c157 1 287 2 289 4 1 1 -62 96 -139 212 -132 198 -141 214 -153 282
-17 99 -64 191 -130 253 -62 59 -161 108 -230 116 -27 3 -54 7 -61 9 -6 2 -13
2 -15 1z"/>
</g>
</svg>
